<svg xmlns="http://www.w3.org/2000/svg" aria-hidden="true">
  <symbol id="icon-search" viewBox="0 0 24 24">
    <circle cx="11" cy="11" r="7"/>
    <path d="m20 20-3.5-3.5"/>
  </symbol>
  <symbol id="icon-menu" viewBox="0 0 24 24">
    <path d="M4 7h16"/>
    <path d="M4 12h16"/>
    <path d="M4 17h16"/>
  </symbol>
  <symbol id="icon-chevron-down" viewBox="0 0 24 24">
    <path d="m6 9 6 6 6-6"/>
  </symbol>
  <symbol id="icon-arrow-right" viewBox="0 0 24 24">
    <path d="M5 12h14"/>
    <path d="m13 6 6 6-6 6"/>
  </symbol>
  <symbol id="icon-arrow-up" viewBox="0 0 24 24">
    <path d="m12 19V5"/>
    <path d="m5 12 7-7 7 7"/>
  </symbol>
  <symbol id="icon-clipboard-check" viewBox="0 0 24 24">
    <path d="M9 5h6"/>
    <path d="M9 3h6v4H9z"/>
    <path d="M8 5H6a2 2 0 0 0-2 2v12a2 2 0 0 0 2 2h12a2 2 0 0 0 2-2V7a2 2 0 0 0-2-2h-2"/>
    <path d="m8 14 2.5 2.5L16 11"/>
  </symbol>
  <symbol id="icon-book-open" viewBox="0 0 24 24">
    <path d="M12 7v14"/>
    <path d="M4 5.5A3.5 3.5 0 0 1 7.5 2H12v19H7.5A3.5 3.5 0 0 0 4 17.5z"/>
    <path d="M20 5.5A3.5 3.5 0 0 0 16.5 2H12v19h4.5a3.5 3.5 0 0 1 3.5-3.5z"/>
  </symbol>
  <symbol id="icon-map-pin" viewBox="0 0 24 24">
    <path d="M12 21s7-5.2 7-12a7 7 0 1 0-14 0c0 6.8 7 12 7 12Z"/>
    <circle cx="12" cy="9" r="2.5"/>
  </symbol>
  <symbol id="icon-play-circle" viewBox="0 0 24 24">
    <circle cx="12" cy="12" r="9"/>
    <path d="m10 8 6 4-6 4z"/>
  </symbol>
  <symbol id="icon-image" viewBox="0 0 24 24">
    <rect x="3" y="5" width="18" height="14" rx="2"/>
    <circle cx="8" cy="10" r="1.6"/>
    <path d="m21 15-5-5L5 21"/>
  </symbol>
  <symbol id="icon-book" viewBox="0 0 24 24">
    <path d="M5 4h11a3 3 0 0 1 3 3v14H8a3 3 0 0 1-3-3z"/>
    <path d="M8 4v17"/>
    <path d="M9 8h6"/>
  </symbol>
  <symbol id="icon-award" viewBox="0 0 24 24">
    <circle cx="12" cy="8" r="5"/>
    <path d="m8.8 12.2-1.4 8.1 4.6-2.7 4.6 2.7-1.4-8.1"/>
  </symbol>
  <symbol id="icon-message" viewBox="0 0 24 24">
    <path d="M21 12a8 8 0 0 1-8 8H7l-4 3 1.2-5A8 8 0 1 1 21 12Z"/>
    <path d="M8 10h8"/>
    <path d="M8 14h5"/>
  </symbol>
  <symbol id="icon-users" viewBox="0 0 24 24">
    <path d="M16 21v-2a4 4 0 0 0-4-4H7a4 4 0 0 0-4 4v2"/>
    <circle cx="9.5" cy="7" r="4"/>
    <path d="M22 21v-2a4 4 0 0 0-3-3.8"/>
    <path d="M16 3.2a4 4 0 0 1 0 7.6"/>
  </symbol>
  <symbol id="icon-clock" viewBox="0 0 24 24">
    <circle cx="12" cy="12" r="9"/>
    <path d="M12 7v5l3 2"/>
  </symbol>
  <symbol id="icon-download" viewBox="0 0 24 24">
    <path d="M12 3v12"/>
    <path d="m7 10 5 5 5-5"/>
    <path d="M5 21h14"/>
  </symbol>
  <symbol id="icon-file-text" viewBox="0 0 24 24">
    <path d="M14 2H7a2 2 0 0 0-2 2v16a2 2 0 0 0 2 2h10a2 2 0 0 0 2-2V7z"/>
    <path d="M14 2v5h5"/>
    <path d="M9 13h6"/>
    <path d="M9 17h4"/>
  </symbol>
  <symbol id="icon-mail" viewBox="0 0 24 24">
    <rect x="3" y="5" width="18" height="14" rx="2"/>
    <path d="m3 7 9 6 9-6"/>
  </symbol>
  <symbol id="icon-phone" viewBox="0 0 24 24">
    <path d="M22 16.9v3a2 2 0 0 1-2.2 2 19.7 19.7 0 0 1-8.6-3.1 19.3 19.3 0 0 1-6-6A19.7 19.7 0 0 1 2.1 4.2 2 2 0 0 1 4.1 2h3a2 2 0 0 1 2 1.7c.1 1 .4 2 .7 2.9a2 2 0 0 1-.4 2.1L8.1 10a16 16 0 0 0 6 6l1.3-1.3a2 2 0 0 1 2.1-.4c.9.3 1.9.6 2.9.7a2 2 0 0 1 1.6 1.9Z"/>
  </symbol>
  <symbol id="icon-home" viewBox="0 0 24 24">
    <path d="m3 11 9-8 9 8"/>
    <path d="M5 10v10h14V10"/>
    <path d="M9 20v-6h6v6"/>
  </symbol>
  <symbol id="icon-graduation" viewBox="0 0 24 24">
    <path d="m22 10-10-5-10 5 10 5 10-5Z"/>
    <path d="M6 12v5c3 2 9 2 12 0v-5"/>
    <path d="M22 10v6"/>
  </symbol>
  <symbol id="icon-user-check" viewBox="0 0 24 24">
    <circle cx="9" cy="7" r="4"/>
    <path d="M3 21v-2a4 4 0 0 1 4-4h4"/>
    <path d="m16 17 2 2 4-5"/>
  </symbol>
  <symbol id="icon-building" viewBox="0 0 24 24">
    <path d="M4 21V5a2 2 0 0 1 2-2h9a2 2 0 0 1 2 2v16"/>
    <path d="M9 21v-5h3v5"/>
    <path d="M8 7h1"/>
    <path d="M12 7h1"/>
    <path d="M8 11h1"/>
    <path d="M12 11h1"/>
    <path d="M17 9h2a1 1 0 0 1 1 1v11"/>
  </symbol>
  <symbol id="icon-calendar" viewBox="0 0 24 24">
    <rect x="3" y="4" width="18" height="17" rx="2"/>
    <path d="M8 2v4"/>
    <path d="M16 2v4"/>
    <path d="M3 10h18"/>
  </symbol>
  <symbol id="icon-heart" viewBox="0 0 24 24">
    <path d="M20.8 4.6a5.4 5.4 0 0 0-7.6 0L12 5.8l-1.2-1.2a5.4 5.4 0 0 0-7.6 7.6L12 21l8.8-8.8a5.4 5.4 0 0 0 0-7.6Z"/>
  </symbol>
  <symbol id="icon-send" viewBox="0 0 24 24">
    <path d="m22 2-7 20-4-9-9-4Z"/>
    <path d="M22 2 11 13"/>
  </symbol>
  <symbol id="icon-credit-card" viewBox="0 0 24 24">
    <rect x="3" y="5" width="18" height="14" rx="2"/>
    <path d="M3 10h18"/>
    <path d="M7 15h3"/>
    <path d="M14 15h3"/>
  </symbol>
  <symbol id="icon-badge-check" viewBox="0 0 24 24">
    <path d="M12 2.8 14.2 5l3.1-.5 1.2 2.9 2.8 1.4-1.4 2.8.5 3.1-2.9 1.2-1.4 2.8-3.1-.5-2.2 2.2-2.2-2.2-3.1.5-1.4-2.8-2.9-1.2.5-3.1-1.4-2.8 2.8-1.4 1.2-2.9 3.1.5Z"/>
    <path d="m8.5 12.2 2.2 2.2 4.8-5"/>
  </symbol>
  <symbol id="icon-settings" viewBox="0 0 24 24">
    <path d="M12 15.5a3.5 3.5 0 1 0 0-7 3.5 3.5 0 0 0 0 7Z"/>
    <path d="M19.4 15a1.8 1.8 0 0 0 .3 2l.1.1a2 2 0 0 1-2.8 2.8l-.1-.1a1.8 1.8 0 0 0-2-.3 1.8 1.8 0 0 0-1.1 1.7V21a2 2 0 0 1-4 0v-.2a1.8 1.8 0 0 0-1.1-1.7 1.8 1.8 0 0 0-2 .3l-.1.1a2 2 0 1 1-2.8-2.8l.1-.1a1.8 1.8 0 0 0 .3-2 1.8 1.8 0 0 0-1.7-1.1H2a2 2 0 0 1 0-4h.2A1.8 1.8 0 0 0 3.9 8a1.8 1.8 0 0 0-.3-2l-.1-.1a2 2 0 1 1 2.8-2.8l.1.1a1.8 1.8 0 0 0 2 .3H8.5A1.8 1.8 0 0 0 9.6 2V2a2 2 0 0 1 4 0v.2a1.8 1.8 0 0 0 1.1 1.7 1.8 1.8 0 0 0 2-.3l.1-.1a2 2 0 1 1 2.8 2.8l-.1.1a1.8 1.8 0 0 0-.3 2V8.5a1.8 1.8 0 0 0 1.7 1.1H21a2 2 0 0 1 0 4h-.2a1.8 1.8 0 0 0-1.4 1.4Z"/>
  </symbol>
  <symbol id="icon-facebook" viewBox="0 0 24 24">
    <path d="M17 2h-3a5 5 0 0 0-5 5v3H6v4h3v8h4v-8h3l1-4h-4V7a1 1 0 0 1 1-1h3Z"/>
  </symbol>
  <symbol id="icon-youtube" viewBox="0 0 24 24">
    <path d="M22 12s0-3.5-.5-5a3 3 0 0 0-2.1-2.1C17.8 4.5 12 4.5 12 4.5s-5.8 0-7.4.4A3 3 0 0 0 2.5 7C2 8.5 2 12 2 12s0 3.5.5 5a3 3 0 0 0 2.1 2.1c1.6.4 7.4.4 7.4.4s5.8 0 7.4-.4a3 3 0 0 0 2.1-2.1c.5-1.5.5-5 .5-5Z"/>
    <path d="m10 15 5-3-5-3z"/>
  </symbol>
  <symbol id="icon-instagram" viewBox="0 0 24 24">
    <rect x="3" y="3" width="18" height="18" rx="5"/>
    <circle cx="12" cy="12" r="4"/>
    <path d="M17.5 6.5h.01"/>
  </symbol>
  <symbol id="icon-whatsapp" viewBox="0 0 24 24">
    <path d="M20 11.5a8 8 0 0 1-11.7 7.1L4 20l1.4-4.1A8 8 0 1 1 20 11.5Z"/>
    <path d="M9.5 8.5c.2 3.1 2 5 5 5.9l1.2-1.2a1 1 0 0 1 1-.2l1.6.6"/>
  </symbol>
  <symbol id="icon-messenger" viewBox="0 0 24 24">
    <path d="M21 11.5a8.5 8.5 0 0 1-12.3 7.6L3 21l1.6-5A8.5 8.5 0 1 1 21 11.5Z"/>
    <path d="m7.5 13 3-3 3 3 3-3"/>
  </symbol>
</svg>
